<?xml version="1.0" encoding="UTF-8"?>
<svg xmlns="http://www.w3.org/2000/svg" version="1.1" xmlns:xlink="http://www.w3.org/1999/xlink" viewBox="0 0 250 250">
  <!-- Generator: Adobe Illustrator 29.3.1, SVG Export Plug-In . SVG Version: 2.1.0 Build 151)  -->
  <defs>
    <style>
      .st0 {
        fill: url(#Dégradé_sans_nom_32);
      }

      .st1 {
        fill: url(#Dégradé_sans_nom_31);
      }

      .st2 {
        fill: url(#Dégradé_sans_nom_3);
      }

      .st3 {
        fill: url(#Dégradé_sans_nom_17);
      }

      .st4 {
        fill: url(#Dégradé_sans_nom_33);
      }
    </style>
    <linearGradient id="Dégradé_sans_nom_3" data-name="Dégradé sans nom 3" x1="152.9" y1="173.5" x2="97" y2="76.6" gradientUnits="userSpaceOnUse">
      <stop offset="0" stop-color="#947553"/>
      <stop offset=".2" stop-color="#473017"/>
      <stop offset=".8" stop-color="#ccac68"/>
      <stop offset="1" stop-color="#ffde99"/>
    </linearGradient>
    <linearGradient id="Dégradé_sans_nom_31" data-name="Dégradé sans nom 3" x1="153.6" y1="174.7" x2="96.3" y2="75.6" xlink:href="#Dégradé_sans_nom_3"/>
    <linearGradient id="Dégradé_sans_nom_32" data-name="Dégradé sans nom 3" x1="154.1" y1="175.7" x2="95.8" y2="74.6" xlink:href="#Dégradé_sans_nom_3"/>
    <linearGradient id="Dégradé_sans_nom_33" data-name="Dégradé sans nom 3" x1="154.6" y1="176.6" x2="95.3" y2="73.8" xlink:href="#Dégradé_sans_nom_3"/>
    <linearGradient id="Dégradé_sans_nom_17" data-name="Dégradé sans nom 17" x1="135" y1="142.5" x2="114.9" y2="107.5" gradientUnits="userSpaceOnUse">
      <stop offset="0" stop-color="#947553"/>
      <stop offset=".3" stop-color="#ccac68"/>
      <stop offset=".7" stop-color="#ccac68"/>
      <stop offset="1" stop-color="#ffde99"/>
    </linearGradient>
  </defs>
  <g id="Calque_2">
    <path d="M187.9,124.9c-36.4,0-52.8-.4-68.6-.7,19.3.3,32.4.7,68.3.7,0-19.2-11.1-33.8-11.1-33.8l-104.3.4s-11.8,17.9-10.9,32.1c0,0-.1,0-.2,0,0,21.9,11.2,38.6,11.2,38.6l104.7-.4s12-20.7,10.9-36.8Z"/>
  </g>
  <g id="Calque_1">
    <g id="target_x5F_6">
      <path class="st2" d="M175.4,160.4h-101l-.3-.4c-7.2-10.3-11-22.5-11-35.1s3.8-24.7,11-35.1l.3-.4h101l.3.4c7.2,10.3,11,22.5,11,35.1s-3.8,24.7-11,35.1l-.3.4ZM75.3,158.8h99.2c6.8-10,10.5-21.6,10.5-33.7s-3.6-23.8-10.5-33.7h-99.2c-6.8,10-10.5,21.6-10.5,33.7s3.6,23.8,10.5,33.7Z"/>
    </g>
    <g id="target_x5F_61" data-name="target_x5F_6">
      <path class="st1" d="M176.6,161.5h-103.2l-.3-.4c-7.4-10.6-11.3-23-11.3-36s3.9-25.4,11.2-36l.3-.4h103.2l.3.4c7.4,10.6,11.2,23,11.2,36s-3.9,25.4-11.3,36l-.3.4ZM74.3,159.8h101.4c7-10.2,10.7-22.2,10.7-34.6s-3.7-24.4-10.7-34.6h-101.4c-7,10.2-10.7,22.2-10.7,34.6s3.7,24.4,10.7,34.6Z"/>
    </g>
    <g id="target_x5F_62" data-name="target_x5F_6">
      <path class="st0" d="M177.6,162.2h-105.2l-.3-.4c-7.5-10.8-11.5-23.5-11.5-36.7s4-25.9,11.5-36.7l.3-.4h105.2l.3.4c7.5,10.8,11.5,23.5,11.5,36.7s-4,25.9-11.5,36.7l-.3.4ZM73.3,160.4h103.4c7.1-10.4,10.9-22.6,10.9-35.3s-3.8-24.9-10.9-35.3h-103.4c-7.1,10.4-10.9,22.6-10.9,35.3s3.8,24.9,10.9,35.3Z"/>
    </g>
    <g id="target_x5F_63" data-name="target_x5F_6">
      <path class="st4" d="M178.4,162.8h-107l-.3-.4c-7.6-11-11.7-23.9-11.7-37.3s4-26.3,11.7-37.3l.3-.4h107l.3.4c7.6,11,11.7,23.9,11.7,37.3s-4,26.3-11.7,37.3l-.3.4ZM72.4,161h105.1c7.2-10.6,11.1-23,11.1-35.9s-3.8-25.3-11.1-35.9h-105.1c-7.2,10.6-11.1,23-11.1,35.9s3.8,25.3,11.1,35.9Z"/>
    </g>
    <polygon class="st3" points="145 119.3 130.6 119.3 130.6 105 119.3 105 119.3 119.3 104.9 119.3 104.9 130.7 119.3 130.7 119.3 145 130.6 145 130.6 130.7 145 130.7 145 119.3"/>
  </g>
</svg>